#define DOC_width 11
#define DOC_height 11
#define DOC_x_hot 0
#define DOC_y_hot 0
static unsigned char DOC_bits[] = {
   0x00, 0x00, 0xfc, 0x01, 0x04, 0x01, 0x74, 0x01, 0x04, 0x01, 0x74, 0x01,
   0x04, 0x01, 0xfc, 0x01, 0x00, 0x00, 0x00, 0x00, 0x00, 0x00};
