#define even_width 13
#define even_height 23
static unsigned char even_bits[] = {
  0xff, 0x1f, 0x7f, 0x10, 0x7f, 0x17, 0x7f, 0x10, 0xff, 0x1f, 0xff, 0x1f,
  0xff, 0x1f, 0x73, 0x10, 0x61, 0x17, 0x73, 0x10, 0xff, 0x1f, 0xff, 0x1f,
  0xff, 0x1f, 0x7f, 0x10, 0x7f, 0x17, 0x7f, 0x10, 0xff, 0x1f, 0xff, 0x1f,
  0xff, 0x1f, 0x73, 0x10, 0x61, 0x17, 0x73, 0x10, 0xff, 0x1f, };
