#define DOT_width 11
#define DOT_height 11
#define DOT_x_hot 0
#define DOT_y_hot 0
static unsigned char DOT_bits[] = {
   0x00, 0x00, 0x00, 0x00, 0x70, 0x00, 0xf8, 0x00, 0xf8, 0x00, 0xf8, 0x00,
   0x70, 0x00, 0x00, 0x00, 0x00, 0x00, 0x00, 0x00, 0x00, 0x00};
